<svg xmlns="http://www.w3.org/2000/svg" viewBox="0 0 64 64" fill="none" stroke="currentColor" stroke-width="1.5" stroke-linecap="round" stroke-linejoin="round" role="img" aria-label="AI text scrambler">
  <!-- Input doc -->
  <rect x="6" y="14" width="18" height="24" rx="2"/>
  <line x1="9"  y1="20" x2="21" y2="20" opacity="0.7"/>
  <line x1="9"  y1="24" x2="21" y2="24" opacity="0.7"/>
  <line x1="9"  y1="28" x2="18" y2="28" opacity="0.7"/>
  <!-- Scramble engine: 3 dots in a hex -->
  <path d="M28 26 L 36 22 L 44 26 L 44 34 L 36 38 L 28 34 Z"/>
  <circle cx="33" cy="29" r="1.2" fill="currentColor" stroke="none"/>
  <circle cx="38" cy="29" r="1.2" fill="currentColor" stroke="none"/>
  <circle cx="36" cy="33" r="1.2" fill="currentColor" stroke="none"/>
  <!-- Output doc with shuffled lines -->
  <rect x="46" y="22" width="14" height="20" rx="2"/>
  <line x1="48" y1="27" x2="56" y2="27" opacity="0.55"/>
  <line x1="50" y1="31" x2="58" y2="31" opacity="0.55"/>
  <line x1="48" y1="35" x2="54" y2="35" opacity="0.55"/>
  <!-- Connectors -->
  <path d="M24 26 L 28 26" opacity="0.5"/>
  <path d="M44 30 L 46 30" opacity="0.5"/>
  <!-- Sparkle -->
  <path d="M52 14 L 53 17 L 56 18 L 53 19 L 52 22 L 51 19 L 48 18 L 51 17 Z" fill="currentColor" stroke="none" opacity="0.85"/>
</svg>
